<svg xmlns="http://www.w3.org/2000/svg" xmlns:xlink="http://www.w3.org/1999/xlink" version="1.1" data-diagram-type="SEQUENCE" style="width:1746px;height:1612px;background:#FFFFFF;" width="1746px" height="1612px" viewBox="0 0 1746 1612" zoomAndPan="magnify" preserveAspectRatio="none" contentStyleType="text/css"><?plantuml 1.2026.8?><defs/><g font-family="sans-serif" lengthAdjust="spacing"><g class="title" data-source-line="31"><text x="711.916" y="29.533" fill="#000" font-size="14" textLength="320.503" font-weight="700">UC02 - Agendar consulta - Sequência de projeto</text></g><rect x="13" y="381.031" width="1697.305" height="1196.516" fill="none" style="stroke:#000;stroke-width:1.5;"/><rect x="32" y="918.844" width="1653.305" height="644.703" fill="none" style="stroke:#000;stroke-width:1.5;"/><g><title>Paciente</title><rect x="44.5" y="126.219" width="8" height="1475.328" fill="#000" fill-opacity="0"/><line x1="48" y1="126.219" x2="48" y2="1601.547" style="stroke:#181818;stroke-width:0.5;stroke-dasharray:5,5;"/></g><g><title>TelaAgendaMedico</title><rect x="291.462" y="126.219" width="8" height="1475.328" fill="#000" fill-opacity="0"/><line x1="294.962" y1="126.219" x2="294.962" y2="1601.547" style="stroke:#181818;stroke-width:0.5;stroke-dasharray:5,5;"/></g><g><title>ConsultaController</title><rect x="563.669" y="126.219" width="8" height="1475.328" fill="#000" fill-opacity="0"/><line x1="567.169" y1="126.219" x2="567.169" y2="1601.547" style="stroke:#181818;stroke-width:0.5;stroke-dasharray:5,5;"/></g><g><title>ConsultaService</title><rect x="861.178" y="126.219" width="8" height="1475.328" fill="#000" fill-opacity="0"/><line x1="864.678" y1="126.219" x2="864.678" y2="1601.547" style="stroke:#181818;stroke-width:0.5;stroke-dasharray:5,5;"/></g><g><title>HorarioAtendimentoRepository</title><rect x="1194.101" y="126.219" width="8" height="1475.328" fill="#000" fill-opacity="0"/><line x1="1197.601" y1="126.219" x2="1197.601" y2="1601.547" style="stroke:#181818;stroke-width:0.5;stroke-dasharray:5,5;"/></g><g><title>ConsultaRepository</title><rect x="1366.9" y="126.219" width="8" height="1475.328" fill="#000" fill-opacity="0"/><line x1="1370.4" y1="126.219" x2="1370.4" y2="1601.547" style="stroke:#181818;stroke-width:0.5;stroke-dasharray:5,5;"/></g><g><title>LembreteService</title><rect x="1496.899" y="126.219" width="8" height="1475.328" fill="#000" fill-opacity="0"/><line x1="1500.399" y1="126.219" x2="1500.399" y2="1601.547" style="stroke:#181818;stroke-width:0.5;stroke-dasharray:5,5;"/></g><g><title>LembreteRepository</title><rect x="1665.805" y="126.219" width="8" height="1475.328" fill="#000" fill-opacity="0"/><line x1="1669.305" y1="126.219" x2="1669.305" y2="1601.547" style="stroke:#181818;stroke-width:0.5;stroke-dasharray:5,5;"/></g><text x="17.759" y="123.143" fill="#000" font-size="14" textLength="54.482">Paciente</text><ellipse cx="48" cy="57.109" rx="8" ry="8" fill="#E2E2F0" style="stroke:#181818;stroke-width:0.5;"/><path d="M48,65.109 L48,92.109 M35,73.109 L61,73.109 M48,92.109 L35,107.109 M48,92.109 L61,107.109" style="stroke:#181818;stroke-width:0.5;" fill="none"/><text x="231.646" y="123.143" fill="#000" font-size="14" textLength="120.634">TelaAgendaMedico</text><path d="M274.462,80.609 L274.462,104.609 M274.462,92.609 L291.462,92.609" style="stroke:#181818;stroke-width:0.5;" fill="none"/><ellipse cx="303.462" cy="92.609" rx="12" ry="12" fill="#E2E2F0" style="stroke:#181818;stroke-width:0.5;"/><text x="506.197" y="123.143" fill="#000" font-size="14" textLength="115.944">ConsultaController</text><ellipse cx="567.169" cy="92.609" rx="12" ry="12" fill="#E2E2F0" style="stroke:#181818;stroke-width:0.5;"/><polygon points="563.169,80.609,569.169,75.609,567.169,80.609,569.169,85.609,563.169,80.609" fill="#181818" style="stroke:#181818;stroke-width:1;stroke-linejoin:miter;stroke-miterlimit:10;"/><text x="810.709" y="123.143" fill="#000" font-size="14" textLength="101.938">ConsultaService</text><ellipse cx="864.678" cy="92.609" rx="12" ry="12" fill="#E2E2F0" style="stroke:#181818;stroke-width:0.5;"/><polygon points="860.678,80.609,866.678,75.609,864.678,80.609,866.678,85.609,860.678,80.609" fill="#181818" style="stroke:#181818;stroke-width:1;stroke-linejoin:miter;stroke-miterlimit:10;"/><text x="1098.887" y="123.143" fill="#000" font-size="14" textLength="191.427">HorarioAtendimentoRepository</text><path d="M1179.601,72.609 C1179.601,62.609 1197.601,62.609 1197.601,62.609 C1197.601,62.609 1215.601,62.609 1215.601,72.609 L1215.601,98.609 C1215.601,108.609 1197.601,108.609 1197.601,108.609 C1197.601,108.609 1179.601,108.609 1179.601,98.609 L1179.601,72.609" style="stroke:#181818;stroke-width:0.5;" fill="#E2E2F0"/><path d="M1179.601,72.609 C1179.601,82.609 1197.601,82.609 1197.601,82.609 C1197.601,82.609 1215.601,82.609 1215.601,72.609" style="stroke:#181818;stroke-width:0.5;" fill="none"/><text x="1306.314" y="123.143" fill="#000" font-size="14" textLength="122.172">ConsultaRepository</text><path d="M1352.4,72.609 C1352.4,62.609 1370.4,62.609 1370.4,62.609 C1370.4,62.609 1388.4,62.609 1388.4,72.609 L1388.4,98.609 C1388.4,108.609 1370.4,108.609 1370.4,108.609 C1370.4,108.609 1352.4,108.609 1352.4,98.609 L1352.4,72.609" style="stroke:#181818;stroke-width:0.5;" fill="#E2E2F0"/><path d="M1352.4,72.609 C1352.4,82.609 1370.4,82.609 1370.4,82.609 C1370.4,82.609 1388.4,82.609 1388.4,72.609" style="stroke:#181818;stroke-width:0.5;" fill="none"/><text x="1444.486" y="123.143" fill="#000" font-size="14" textLength="105.827">LembreteService</text><ellipse cx="1500.399" cy="92.609" rx="12" ry="12" fill="#E2E2F0" style="stroke:#181818;stroke-width:0.5;"/><polygon points="1496.399,80.609,1502.399,75.609,1500.399,80.609,1502.399,85.609,1496.399,80.609" fill="#181818" style="stroke:#181818;stroke-width:1;stroke-linejoin:miter;stroke-miterlimit:10;"/><text x="1603.274" y="123.143" fill="#000" font-size="14" textLength="126.062">LembreteRepository</text><path d="M1651.305,72.609 C1651.305,62.609 1669.305,62.609 1669.305,62.609 C1669.305,62.609 1687.305,62.609 1687.305,72.609 L1687.305,98.609 C1687.305,108.609 1669.305,108.609 1669.305,108.609 C1669.305,108.609 1651.305,108.609 1651.305,98.609 L1651.305,72.609" style="stroke:#181818;stroke-width:0.5;" fill="#E2E2F0"/><path d="M1651.305,72.609 C1651.305,82.609 1669.305,82.609 1669.305,82.609 C1669.305,82.609 1687.305,82.609 1687.305,72.609" style="stroke:#181818;stroke-width:0.5;" fill="none"/><polygon points="282.962,152.57,292.962,156.57,282.962,160.57,286.962,156.57" fill="#181818" style="stroke:#181818;stroke-width:1;stroke-linejoin:miter;stroke-miterlimit:10;"/><line x1="48" y1="156.57" x2="288.962" y2="156.57" style="stroke:#181818;stroke-width:1;"/><text x="55" y="151.714" fill="#000" font-size="13" font-weight="700">1</text><text x="66.23" y="151.714" fill="#000" font-size="13" textLength="195.095">selecionarMedico(medicoId, data)</text><polygon points="555.169,182.922,565.169,186.922,555.169,190.922,559.169,186.922" fill="#181818" style="stroke:#181818;stroke-width:1;stroke-linejoin:miter;stroke-miterlimit:10;"/><line x1="294.962" y1="186.922" x2="561.169" y2="186.922" style="stroke:#181818;stroke-width:1;"/><text x="301.962" y="182.065" fill="#000" font-size="13" font-weight="700">2</text><text x="313.192" y="182.065" fill="#000" font-size="13" textLength="236.977">listarHorariosDisponiveis(medicoId, data)</text><polygon points="852.678,213.273,862.678,217.273,852.678,221.273,856.678,217.273" fill="#181818" style="stroke:#181818;stroke-width:1;stroke-linejoin:miter;stroke-miterlimit:10;"/><line x1="567.169" y1="217.273" x2="858.678" y2="217.273" style="stroke:#181818;stroke-width:1;"/><text x="574.169" y="212.417" fill="#000" font-size="13" font-weight="700">3</text><text x="585.399" y="212.417" fill="#000" font-size="13" textLength="262.279">consultarHorariosDisponiveis(medicoId, data)</text><polygon points="1185.601,243.625,1195.601,247.625,1185.601,251.625,1189.601,247.625" fill="#181818" style="stroke:#181818;stroke-width:1;stroke-linejoin:miter;stroke-miterlimit:10;"/><line x1="864.678" y1="247.625" x2="1191.601" y2="247.625" style="stroke:#181818;stroke-width:1;"/><text x="871.678" y="242.769" fill="#000" font-size="13" font-weight="700">4</text><text x="882.908" y="242.769" fill="#000" font-size="13" textLength="297.692">buscarDisponiveisPorMedicoEData(medicoId, data)</text><polygon points="875.678,273.977,865.678,277.977,875.678,281.977,871.678,277.977" fill="#181818" style="stroke:#181818;stroke-width:1;stroke-linejoin:miter;stroke-miterlimit:10;"/><line x1="869.678" y1="277.977" x2="1196.601" y2="277.977" style="stroke:#181818;stroke-width:1;stroke-dasharray:2,2;"/><text x="881.678" y="273.12" fill="#000" font-size="13" font-weight="700">5</text><text x="892.908" y="273.12" fill="#000" font-size="13" textLength="113.439">horariosDisponiveis</text><polygon points="578.169,304.328,568.169,308.328,578.169,312.328,574.169,308.328" fill="#181818" style="stroke:#181818;stroke-width:1;stroke-linejoin:miter;stroke-miterlimit:10;"/><line x1="572.169" y1="308.328" x2="863.678" y2="308.328" style="stroke:#181818;stroke-width:1;stroke-dasharray:2,2;"/><text x="584.169" y="303.472" fill="#000" font-size="13" font-weight="700">6</text><text x="595.399" y="303.472" fill="#000" font-size="13" textLength="113.439">horariosDisponiveis</text><polygon points="305.962,334.68,295.962,338.68,305.962,342.68,301.962,338.68" fill="#181818" style="stroke:#181818;stroke-width:1;stroke-linejoin:miter;stroke-miterlimit:10;"/><line x1="299.962" y1="338.68" x2="566.169" y2="338.68" style="stroke:#181818;stroke-width:1;stroke-dasharray:2,2;"/><text x="311.962" y="333.823" fill="#000" font-size="13" font-weight="700">7</text><text x="323.192" y="333.823" fill="#000" font-size="13" textLength="113.439">horariosDisponiveis</text><polygon points="59,365.031,49,369.031,59,373.031,55,369.031" fill="#181818" style="stroke:#181818;stroke-width:1;stroke-linejoin:miter;stroke-miterlimit:10;"/><line x1="53" y1="369.031" x2="293.962" y2="369.031" style="stroke:#181818;stroke-width:1;stroke-dasharray:2,2;"/><text x="65" y="364.175" fill="#000" font-size="13" font-weight="700">8</text><text x="76.23" y="364.175" fill="#000" font-size="13" textLength="173.424">exibir agenda e horários livres</text><path d="M13,381.031 L73.171,381.031 L73.171,389.383 L63.171,399.383 L13,399.383 L13,381.031" style="stroke:#000;stroke-width:1.5;" fill="#EEE"/><rect x="13" y="381.031" width="1697.305" height="1196.516" fill="none" style="stroke:#000;stroke-width:1.5;"/><text x="28" y="395.526" fill="#000" font-size="13" textLength="15.171" font-weight="700">alt</text><text x="88.171" y="394.45" fill="#000" font-size="11" textLength="149.778" font-weight="700">[não existem horários livres]</text><polygon points="59,427.734,49,431.734,59,435.734,55,431.734" fill="#181818" style="stroke:#181818;stroke-width:1;stroke-linejoin:miter;stroke-miterlimit:10;"/><line x1="53" y1="431.734" x2="293.962" y2="431.734" style="stroke:#181818;stroke-width:1;stroke-dasharray:2,2;"/><text x="65" y="426.878" fill="#000" font-size="13" font-weight="700">9</text><text x="76.23" y="426.878" fill="#000" font-size="13" textLength="171.977">informar ausência de horários</text><line x1="13" y1="440.734" x2="1710.305" y2="440.734" style="stroke:#000;stroke-width:1;stroke-dasharray:2,2;"/><text x="18" y="454.153" fill="#000" font-size="11" textLength="127.166" font-weight="700">[existem horários livres]</text><polygon points="282.962,477.922,292.962,481.922,282.962,485.922,286.962,481.922" fill="#181818" style="stroke:#181818;stroke-width:1;stroke-linejoin:miter;stroke-miterlimit:10;"/><line x1="48" y1="481.922" x2="288.962" y2="481.922" style="stroke:#181818;stroke-width:1;"/><text x="55" y="477.065" fill="#000" font-size="13" textLength="14.46" font-weight="700">10</text><text x="73.46" y="477.065" fill="#000" font-size="13" textLength="161.846">selecionarHorario(horarioId)</text><polygon points="555.169,508.273,565.169,512.273,555.169,516.273,559.169,512.273" fill="#181818" style="stroke:#181818;stroke-width:1;stroke-linejoin:miter;stroke-miterlimit:10;"/><line x1="294.962" y1="512.273" x2="561.169" y2="512.273" style="stroke:#181818;stroke-width:1;"/><text x="301.962" y="507.417" fill="#000" font-size="13" textLength="14.46" font-weight="700">11</text><text x="320.422" y="507.417" fill="#000" font-size="13" textLength="138.004">obterResumo(horarioId)</text><polygon points="852.678,538.625,862.678,542.625,852.678,546.625,856.678,542.625" fill="#181818" style="stroke:#181818;stroke-width:1;stroke-linejoin:miter;stroke-miterlimit:10;"/><line x1="567.169" y1="542.625" x2="858.678" y2="542.625" style="stroke:#181818;stroke-width:1;"/><text x="574.169" y="537.769" fill="#000" font-size="13" textLength="14.46" font-weight="700">12</text><text x="592.629" y="537.769" fill="#000" font-size="13" textLength="138.004">obterResumo(horarioId)</text><polygon points="1185.601,568.977,1195.601,572.977,1185.601,576.977,1189.601,572.977" fill="#181818" style="stroke:#181818;stroke-width:1;stroke-linejoin:miter;stroke-miterlimit:10;"/><line x1="864.678" y1="572.977" x2="1191.601" y2="572.977" style="stroke:#181818;stroke-width:1;"/><text x="871.678" y="568.12" fill="#000" font-size="13" textLength="14.46" font-weight="700">13</text><text x="890.138" y="568.12" fill="#000" font-size="13" textLength="130.057">buscarPorId(horarioId)</text><polygon points="875.678,599.328,865.678,603.328,875.678,607.328,871.678,603.328" fill="#181818" style="stroke:#181818;stroke-width:1;stroke-linejoin:miter;stroke-miterlimit:10;"/><line x1="869.678" y1="603.328" x2="1196.601" y2="603.328" style="stroke:#181818;stroke-width:1;stroke-dasharray:2,2;"/><text x="881.678" y="598.472" fill="#000" font-size="13" textLength="14.46" font-weight="700">14</text><text x="900.138" y="598.472" fill="#000" font-size="13" textLength="40.466">horario</text><polygon points="578.169,629.68,568.169,633.68,578.169,637.68,574.169,633.68" fill="#181818" style="stroke:#181818;stroke-width:1;stroke-linejoin:miter;stroke-miterlimit:10;"/><line x1="572.169" y1="633.68" x2="863.678" y2="633.68" style="stroke:#181818;stroke-width:1;stroke-dasharray:2,2;"/><text x="584.169" y="628.823" fill="#000" font-size="13" textLength="14.46" font-weight="700">15</text><text x="602.629" y="628.823" fill="#000" font-size="13" textLength="94.656">resumoConsulta</text><polygon points="305.962,660.031,295.962,664.031,305.962,668.031,301.962,664.031" fill="#181818" style="stroke:#181818;stroke-width:1;stroke-linejoin:miter;stroke-miterlimit:10;"/><line x1="299.962" y1="664.031" x2="566.169" y2="664.031" style="stroke:#181818;stroke-width:1;stroke-dasharray:2,2;"/><text x="311.962" y="659.175" fill="#000" font-size="13" textLength="14.46" font-weight="700">16</text><text x="330.422" y="659.175" fill="#000" font-size="13" textLength="94.656">resumoConsulta</text><polygon points="59,690.383,49,694.383,59,698.383,55,694.383" fill="#181818" style="stroke:#181818;stroke-width:1;stroke-linejoin:miter;stroke-miterlimit:10;"/><line x1="53" y1="694.383" x2="293.962" y2="694.383" style="stroke:#181818;stroke-width:1;stroke-dasharray:2,2;"/><text x="65" y="689.526" fill="#000" font-size="13" textLength="14.46" font-weight="700">17</text><text x="83.46" y="689.526" fill="#000" font-size="13" textLength="204.502">exibir data, horário, duração e valor</text><polygon points="282.962,720.734,292.962,724.734,282.962,728.734,286.962,724.734" fill="#181818" style="stroke:#181818;stroke-width:1;stroke-linejoin:miter;stroke-miterlimit:10;"/><line x1="48" y1="724.734" x2="288.962" y2="724.734" style="stroke:#181818;stroke-width:1;"/><text x="55" y="719.878" fill="#000" font-size="13" textLength="14.46" font-weight="700">18</text><text x="73.46" y="719.878" fill="#000" font-size="13" textLength="143.787">confirmarAgendamento()</text><polygon points="555.169,751.086,565.169,755.086,555.169,759.086,559.169,755.086" fill="#181818" style="stroke:#181818;stroke-width:1;stroke-linejoin:miter;stroke-miterlimit:10;"/><line x1="294.962" y1="755.086" x2="561.169" y2="755.086" style="stroke:#181818;stroke-width:1;"/><text x="301.962" y="750.229" fill="#000" font-size="13" textLength="14.46" font-weight="700">19</text><text x="320.422" y="750.229" fill="#000" font-size="13" textLength="174.891">agendar(pacienteId, horarioId)</text><polygon points="852.678,781.438,862.678,785.438,852.678,789.438,856.678,785.438" fill="#181818" style="stroke:#181818;stroke-width:1;stroke-linejoin:miter;stroke-miterlimit:10;"/><line x1="567.169" y1="785.438" x2="858.678" y2="785.438" style="stroke:#181818;stroke-width:1;"/><text x="574.169" y="780.581" fill="#000" font-size="13" textLength="14.46" font-weight="700">20</text><text x="592.629" y="780.581" fill="#000" font-size="13" textLength="174.891">agendar(pacienteId, horarioId)</text><polygon points="1185.601,811.789,1195.601,815.789,1185.601,819.789,1189.601,815.789" fill="#181818" style="stroke:#181818;stroke-width:1;stroke-linejoin:miter;stroke-miterlimit:10;"/><line x1="864.678" y1="815.789" x2="1191.601" y2="815.789" style="stroke:#181818;stroke-width:1;"/><text x="871.678" y="810.933" fill="#000" font-size="13" textLength="14.46" font-weight="700">21</text><text x="890.138" y="810.933" fill="#000" font-size="13" textLength="186.431">bloquearParaReserva(horarioId)</text><polygon points="875.678,842.141,865.678,846.141,875.678,850.141,871.678,846.141" fill="#181818" style="stroke:#181818;stroke-width:1;stroke-linejoin:miter;stroke-miterlimit:10;"/><line x1="869.678" y1="846.141" x2="1196.601" y2="846.141" style="stroke:#181818;stroke-width:1;stroke-dasharray:2,2;"/><text x="881.678" y="841.284" fill="#000" font-size="13" textLength="14.46" font-weight="700">22</text><text x="900.138" y="841.284" fill="#000" font-size="13" textLength="70.097">horarioAtual</text><polygon points="1358.4,872.492,1368.4,876.492,1358.4,880.492,1362.4,876.492" fill="#181818" style="stroke:#181818;stroke-width:1;stroke-linejoin:miter;stroke-miterlimit:10;"/><line x1="864.678" y1="876.492" x2="1364.4" y2="876.492" style="stroke:#181818;stroke-width:1;"/><text x="871.678" y="871.636" fill="#000" font-size="13" textLength="14.46" font-weight="700">23</text><text x="890.138" y="871.636" fill="#000" font-size="13" textLength="290.494">existeConsultaNaData(pacienteId, medicoId, data)</text><polygon points="875.678,902.844,865.678,906.844,875.678,910.844,871.678,906.844" fill="#181818" style="stroke:#181818;stroke-width:1;stroke-linejoin:miter;stroke-miterlimit:10;"/><line x1="869.678" y1="906.844" x2="1369.4" y2="906.844" style="stroke:#181818;stroke-width:1;stroke-dasharray:2,2;"/><text x="881.678" y="901.987" fill="#000" font-size="13" textLength="14.46" font-weight="700">24</text><text x="900.138" y="901.987" fill="#000" font-size="13" textLength="53.479">resultado</text><path d="M32,918.844 L92.171,918.844 L92.171,927.195 L82.171,937.195 L32,937.195 L32,918.844" style="stroke:#000;stroke-width:1.5;" fill="#EEE"/><rect x="32" y="918.844" width="1653.305" height="644.703" fill="none" style="stroke:#000;stroke-width:1.5;"/><text x="47" y="933.339" fill="#000" font-size="13" textLength="15.171" font-weight="700">alt</text><text x="107.171" y="932.263" fill="#000" font-size="11" textLength="129.588" font-weight="700">[horário já foi reservado]</text><polygon points="578.169,965.547,568.169,969.547,578.169,973.547,574.169,969.547" fill="#181818" style="stroke:#181818;stroke-width:1;stroke-linejoin:miter;stroke-miterlimit:10;"/><line x1="572.169" y1="969.547" x2="863.678" y2="969.547" style="stroke:#181818;stroke-width:1;stroke-dasharray:2,2;"/><text x="584.169" y="964.69" fill="#000" font-size="13" textLength="14.46" font-weight="700">25</text><text x="602.629" y="964.69" fill="#000" font-size="13" textLength="134.399">erroHorarioIndisponivel</text><polygon points="305.962,995.898,295.962,999.898,305.962,1003.898,301.962,999.898" fill="#181818" style="stroke:#181818;stroke-width:1;stroke-linejoin:miter;stroke-miterlimit:10;"/><line x1="299.962" y1="999.898" x2="566.169" y2="999.898" style="stroke:#181818;stroke-width:1;stroke-dasharray:2,2;"/><text x="311.962" y="995.042" fill="#000" font-size="13" textLength="14.46" font-weight="700">26</text><text x="330.422" y="995.042" fill="#000" font-size="13" textLength="147.418">informar indisponibilidade</text><polygon points="59,1026.25,49,1030.25,59,1034.25,55,1030.25" fill="#181818" style="stroke:#181818;stroke-width:1;stroke-linejoin:miter;stroke-miterlimit:10;"/><line x1="53" y1="1030.25" x2="293.962" y2="1030.25" style="stroke:#181818;stroke-width:1;stroke-dasharray:2,2;"/><text x="65" y="1025.394" fill="#000" font-size="13" textLength="14.46" font-weight="700">27</text><text x="83.46" y="1025.394" fill="#000" font-size="13" textLength="140.937">exibir agenda atualizada</text><line x1="32" y1="1039.25" x2="1685.305" y2="1039.25" style="stroke:#000;stroke-width:1;stroke-dasharray:2,2;"/><text x="37" y="1052.669" fill="#000" font-size="11" textLength="269.559" font-weight="700">[paciente já possui consulta com o médico na data]</text><polygon points="1358.4,1076.438,1368.4,1080.438,1358.4,1084.438,1362.4,1080.438" fill="#181818" style="stroke:#181818;stroke-width:1;stroke-linejoin:miter;stroke-miterlimit:10;"/><line x1="864.678" y1="1080.438" x2="1364.4" y2="1080.438" style="stroke:#181818;stroke-width:1;"/><text x="871.678" y="1075.581" fill="#000" font-size="13" textLength="14.46" font-weight="700">28</text><text x="890.138" y="1075.581" fill="#000" font-size="13" textLength="304.948">buscarConsultaExistente(pacienteId, medicoId, data)</text><polygon points="875.678,1106.789,865.678,1110.789,875.678,1114.789,871.678,1110.789" fill="#181818" style="stroke:#181818;stroke-width:1;stroke-linejoin:miter;stroke-miterlimit:10;"/><line x1="869.678" y1="1110.789" x2="1369.4" y2="1110.789" style="stroke:#181818;stroke-width:1;stroke-dasharray:2,2;"/><text x="881.678" y="1105.933" fill="#000" font-size="13" textLength="14.46" font-weight="700">29</text><text x="900.138" y="1105.933" fill="#000" font-size="13" textLength="101.893">consultaExistente</text><polygon points="578.169,1137.141,568.169,1141.141,578.169,1145.141,574.169,1141.141" fill="#181818" style="stroke:#181818;stroke-width:1;stroke-linejoin:miter;stroke-miterlimit:10;"/><line x1="572.169" y1="1141.141" x2="863.678" y2="1141.141" style="stroke:#181818;stroke-width:1;stroke-dasharray:2,2;"/><text x="584.169" y="1136.284" fill="#000" font-size="13" textLength="14.46" font-weight="700">30</text><text x="602.629" y="1136.284" fill="#000" font-size="13" textLength="242.792">erroConsultaDuplicada(consultaExistente)</text><polygon points="305.962,1167.492,295.962,1171.492,305.962,1175.492,301.962,1171.492" fill="#181818" style="stroke:#181818;stroke-width:1;stroke-linejoin:miter;stroke-miterlimit:10;"/><line x1="299.962" y1="1171.492" x2="566.169" y2="1171.492" style="stroke:#181818;stroke-width:1;stroke-dasharray:2,2;"/><text x="311.962" y="1166.636" fill="#000" font-size="13" textLength="14.46" font-weight="700">31</text><text x="330.422" y="1166.636" fill="#000" font-size="13" textLength="169.825">apresentar consulta existente</text><polygon points="59,1197.844,49,1201.844,59,1205.844,55,1201.844" fill="#181818" style="stroke:#181818;stroke-width:1;stroke-linejoin:miter;stroke-miterlimit:10;"/><line x1="53" y1="1201.844" x2="293.962" y2="1201.844" style="stroke:#181818;stroke-width:1;stroke-dasharray:2,2;"/><text x="65" y="1196.987" fill="#000" font-size="13" textLength="14.46" font-weight="700">32</text><text x="83.46" y="1196.987" fill="#000" font-size="13" textLength="201.64">informar bloqueio do agendamento</text><line x1="32" y1="1210.844" x2="1685.305" y2="1210.844" style="stroke:#000;stroke-width:1;stroke-dasharray:2,2;"/><text x="37" y="1224.263" fill="#000" font-size="11" textLength="201.094" font-weight="700">[horário disponível e sem duplicidade]</text><polygon points="1358.4,1248.031,1368.4,1252.031,1358.4,1256.031,1362.4,1252.031" fill="#181818" style="stroke:#181818;stroke-width:1;stroke-linejoin:miter;stroke-miterlimit:10;"/><line x1="864.678" y1="1252.031" x2="1364.4" y2="1252.031" style="stroke:#181818;stroke-width:1;"/><text x="871.678" y="1247.175" fill="#000" font-size="13" textLength="14.46" font-weight="700">33</text><text x="890.138" y="1247.175" fill="#000" font-size="13" textLength="122.833">salvar(novaConsulta)</text><polygon points="875.678,1278.383,865.678,1282.383,875.678,1286.383,871.678,1282.383" fill="#181818" style="stroke:#181818;stroke-width:1;stroke-linejoin:miter;stroke-miterlimit:10;"/><line x1="869.678" y1="1282.383" x2="1369.4" y2="1282.383" style="stroke:#181818;stroke-width:1;stroke-dasharray:2,2;"/><text x="881.678" y="1277.526" fill="#000" font-size="13" textLength="14.46" font-weight="700">34</text><text x="900.138" y="1277.526" fill="#000" font-size="13" textLength="107.701">consultaAgendada</text><polygon points="1185.601,1308.734,1195.601,1312.734,1185.601,1316.734,1189.601,1312.734" fill="#181818" style="stroke:#181818;stroke-width:1;stroke-linejoin:miter;stroke-miterlimit:10;"/><line x1="864.678" y1="1312.734" x2="1191.601" y2="1312.734" style="stroke:#181818;stroke-width:1;"/><text x="871.678" y="1307.878" fill="#000" font-size="13" textLength="14.46" font-weight="700">35</text><text x="890.138" y="1307.878" fill="#000" font-size="13" textLength="187.853">marcarComoOcupado(horarioId)</text><polygon points="875.678,1339.086,865.678,1343.086,875.678,1347.086,871.678,1343.086" fill="#181818" style="stroke:#181818;stroke-width:1;stroke-linejoin:miter;stroke-miterlimit:10;"/><line x1="869.678" y1="1343.086" x2="1196.601" y2="1343.086" style="stroke:#181818;stroke-width:1;stroke-dasharray:2,2;"/><text x="881.678" y="1338.229" fill="#000" font-size="13" textLength="14.46" font-weight="700">36</text><text x="900.138" y="1338.229" fill="#000" font-size="13" textLength="103.346">horário atualizado</text><polygon points="1488.399,1369.438,1498.399,1373.438,1488.399,1377.438,1492.399,1373.438" fill="#181818" style="stroke:#181818;stroke-width:1;stroke-linejoin:miter;stroke-miterlimit:10;"/><line x1="864.678" y1="1373.438" x2="1494.399" y2="1373.438" style="stroke:#181818;stroke-width:1;"/><text x="871.678" y="1368.581" fill="#000" font-size="13" textLength="14.46" font-weight="700">37</text><text x="890.138" y="1368.581" fill="#000" font-size="13" textLength="231.245">programarLembrete(consultaAgendada)</text><polygon points="1657.305,1399.789,1667.305,1403.789,1657.305,1407.789,1661.305,1403.789" fill="#181818" style="stroke:#181818;stroke-width:1;stroke-linejoin:miter;stroke-miterlimit:10;"/><line x1="1500.399" y1="1403.789" x2="1663.305" y2="1403.789" style="stroke:#181818;stroke-width:1;"/><text x="1507.399" y="1398.933" fill="#000" font-size="13" textLength="14.46" font-weight="700">38</text><text x="1525.859" y="1398.933" fill="#000" font-size="13" textLength="126.445">salvar(novoLembrete)</text><polygon points="1511.399,1430.141,1501.399,1434.141,1511.399,1438.141,1507.399,1434.141" fill="#181818" style="stroke:#181818;stroke-width:1;stroke-linejoin:miter;stroke-miterlimit:10;"/><line x1="1505.399" y1="1434.141" x2="1668.305" y2="1434.141" style="stroke:#181818;stroke-width:1;stroke-dasharray:2,2;"/><text x="1517.399" y="1429.284" fill="#000" font-size="13" textLength="14.46" font-weight="700">39</text><text x="1535.859" y="1429.284" fill="#000" font-size="13" textLength="122.116">lembreteProgramado</text><polygon points="875.678,1460.492,865.678,1464.492,875.678,1468.492,871.678,1464.492" fill="#181818" style="stroke:#181818;stroke-width:1;stroke-linejoin:miter;stroke-miterlimit:10;"/><line x1="869.678" y1="1464.492" x2="1499.399" y2="1464.492" style="stroke:#181818;stroke-width:1;stroke-dasharray:2,2;"/><text x="881.678" y="1459.636" fill="#000" font-size="13" textLength="14.46" font-weight="700">40</text><text x="900.138" y="1459.636" fill="#000" font-size="13" textLength="70.808">confirmação</text><polygon points="578.169,1490.844,568.169,1494.844,578.169,1498.844,574.169,1494.844" fill="#181818" style="stroke:#181818;stroke-width:1;stroke-linejoin:miter;stroke-miterlimit:10;"/><line x1="572.169" y1="1494.844" x2="863.678" y2="1494.844" style="stroke:#181818;stroke-width:1;stroke-dasharray:2,2;"/><text x="584.169" y="1489.987" fill="#000" font-size="13" textLength="14.46" font-weight="700">41</text><text x="602.629" y="1489.987" fill="#000" font-size="13" textLength="107.701">consultaAgendada</text><polygon points="305.962,1521.195,295.962,1525.195,305.962,1529.195,301.962,1525.195" fill="#181818" style="stroke:#181818;stroke-width:1;stroke-linejoin:miter;stroke-miterlimit:10;"/><line x1="299.962" y1="1525.195" x2="566.169" y2="1525.195" style="stroke:#181818;stroke-width:1;stroke-dasharray:2,2;"/><text x="311.962" y="1520.339" fill="#000" font-size="13" textLength="14.46" font-weight="700">42</text><text x="330.422" y="1520.339" fill="#000" font-size="13" textLength="172.002">confirmação do agendamento</text><polygon points="59,1551.547,49,1555.547,59,1559.547,55,1555.547" fill="#181818" style="stroke:#181818;stroke-width:1;stroke-linejoin:miter;stroke-miterlimit:10;"/><line x1="53" y1="1555.547" x2="293.962" y2="1555.547" style="stroke:#181818;stroke-width:1;stroke-dasharray:2,2;"/><text x="65" y="1550.69" fill="#000" font-size="13" textLength="14.46" font-weight="700">43</text><text x="83.46" y="1550.69" fill="#000" font-size="13" textLength="105.485">exibir confirmação</text><?plantuml-src bLRRJjmm47tFLrZxj4WWLNtaeH8295Rg1K7x0PDa02CdizZE2letg0zLA_KhziSwjdFnnjaD825OPyvuvfmpaxNIAXG_pZzy52VYx1xh4hGeg3QDii17j_ZKRF_MXGHHebXhUaHBsOFa3tT4DgVd31fBTLFbgBCC2ajQN4CXiRQOvTIuX2zYyHqLXFHVi9G5BGGOuGuplingKc9ntjvw7WuKQXyqV4n3Rr5lP84-hlq_Ay523WR5ueeqQ4bdbg-L5HT4DxWc8xd45mzf0znf1EkIZuBZuw6IprZb6Yt6bOpEejJTar7g-3ZBElR4oIVFa3WL1XKMachGWRrbvV-iocFXaXzbFexZ1x8OfQIneDicpOKqQwhb1gL9u16CaxHrSuRE26zAqi4uGqGiPyaRKu2EeDVKzd5vmSWaKOm-sQdd8IrZk7RS_bHmtEX0xrHaO9HZUZbE1JxBN6e1tiS27Mxxwe1CzKQZOVyhA-hjBtAXncALXWZ-cSejwplI5GyVD6OOk1wUeM837Snwq3SjfyksrLLv55Ko8evoY_e6JLCbyVkCSW0oOmlsmgeSOsOTi9jvt83sXNG3cnG-y3CHU41tvyxZddjsQwDX-zkhBJQWYFVV7XruZkwaKpUiGB-BbWSK20xJotMRoit66vMOWSv8ekYfGHO5DEyvms7mRcdER0DgV4syF0EXxEFky2luDH1NF5u9RST3ZjshdOxyfAJGdvl2JYRnk7tbLvLqCQwVCdZde7zGQshxNF6herqAgWTEcwcVODbXSgba2INsmFcb0euz-HFAu4O_zHqnlXL-SPX63g_eWYf1ejh-SOI96ZnXQOk9167wkiDBBmZVCQl2Z1B5EE7RsEuoNZHh9GlkVfaaEfgX7zPEuTh6trymgUBWwWtsPy-KrEhX9tLGeZTL47ZxZrt1mszu9PU-ybsvzxDlG6ruI6lQGFVaNVI6FL9E2hqxqjoNrxcYRqMpPlkF1tfsg4F7lJ5fwixHLnu6ybV5UmryU_TeEQvzk7wCZX8cV57t98NtvQVLgFRakgqgwYAvV4outzn-pyzxUQy-qvxToJxbkfcbaLR7yCpz_WS0?></g></svg>